<svg width="61" height="61" viewBox="0 0 61 61" fill="none" xmlns="http://www.w3.org/2000/svg">
<g clip-path="url(#clip0_96_10)">
<path d="M30.5 59C14.7599 59 2 46.2401 2 30.5C2 14.7599 14.7599 2 30.5 2C46.2401 2 59 14.7599 59 30.5C59 46.2401 46.2401 59 30.5 59Z" stroke="#EE6B2C" stroke-width="4"/>
<path d="M31 41.52L29.26 39.936C23.08 34.332 19 30.624 19 26.1C19 22.392 21.904 19.5 25.6 19.5C27.688 19.5 29.692 20.472 31 21.996C32.308 20.472 34.312 19.5 36.4 19.5C40.096 19.5 43 22.392 43 26.1C43 30.624 38.92 34.332 32.74 39.936L31 41.52Z" fill="#EE6B2C"/>
</g>
<defs>
<clipPath id="clip0_96_10">
<rect width="61" height="61" fill="white"/>
</clipPath>
</defs>
</svg>
